HIERARCHY
ROOT Hips
{
	OFFSET 0.00 0.00 0.00
	CHANNELS 6 Xposition Yposition Zposition Xrotation Yrotation Zrotation
	JOINT LeftUpLeg
	{
		OFFSET 2.83210 0.00000 0.00000
		CHANNELS 3 Xrotation Yrotation Zrotation
		JOINT LeftLeg
		{
			OFFSET 0.00000 -16.27150 0.00000
			CHANNELS 3 Xrotation Yrotation Zrotation
			JOINT LeftFoot
			{
				OFFSET 0.00000 -14.95190 0.00000
				CHANNELS 3 Xrotation Yrotation Zrotation
				JOINT LeftToeBase
				{
					OFFSET 0.00000 -1.07991 4.03030
					CHANNELS 3 Xrotation Yrotation Zrotation
					End Site
					{
						OFFSET 0.00000 0.00000 2.95275
					}
				}
			}
		}
	}
	JOINT RightUpLeg
	{
		OFFSET -2.83210 0.00000 0.00000
		CHANNELS 3 Xrotation Yrotation Zrotation
		JOINT RightLeg
		{
			OFFSET 0.00000 -16.27150 0.00000
			CHANNELS 3 Xrotation Yrotation Zrotation
			JOINT RightFoot
			{
				OFFSET 0.00000 -14.95190 0.00000
				CHANNELS 3 Xrotation Yrotation Zrotation
				JOINT RightToeBase
				{
					OFFSET 0.00000 -1.07991 4.03030
					CHANNELS 3 Xrotation Yrotation Zrotation
					End Site
					{
						OFFSET 0.00000 0.00000 2.95275
					}
				}
			}
		}
	}
	JOINT Spine
	{
		OFFSET 0.00000 0.03937 0.00000
		CHANNELS 3 Xrotation Yrotation Zrotation
		JOINT Spine1
		{
			OFFSET 0.00000 8.01054 0.00000
			CHANNELS 3 Xrotation Yrotation Zrotation
			JOINT Neck
			{
				OFFSET 0.00000 8.21888 0.00000
				CHANNELS 3 Xrotation Yrotation Zrotation
				JOINT Head
				{
					OFFSET 0.00000 3.25664 0.00000
					CHANNELS 3 Xrotation Yrotation Zrotation
					End Site
					{
						OFFSET 0.00000 4.52755 0.00000
					}
				}
			}
			JOINT LeftShoulder
			{
				OFFSET 0.00000 8.21888 0.00000
				CHANNELS 3 Xrotation Yrotation Zrotation
				JOINT LeftArm
				{
					OFFSET 6.52904 -0.00002 0.00000
					CHANNELS 3 Xrotation Yrotation Zrotation
					JOINT LeftForeArm
					{
						OFFSET 10.44840 -0.00004 0.00000
						CHANNELS 3 Xrotation Yrotation Zrotation
						JOINT LeftHand
						{
							OFFSET 8.94727 -0.00003 0.00000
							CHANNELS 3 Xrotation Yrotation Zrotation
							JOINT LeftHandThumb
							{
								OFFSET 0.00000 0.00000 0.00000
								CHANNELS 3 Xrotation Yrotation Zrotation
								End Site
								{
									OFFSET 0.00000 0.00000 3.93700
								}
							}
							JOINT L_Wrist_End
							{
								OFFSET 3.93700 -0.00001 0.00000
								CHANNELS 3 Xrotation Yrotation Zrotation
							}
						}
					}
				}
			}
			JOINT RightShoulder
			{
				OFFSET 0.00000 8.21888 0.00000
				CHANNELS 3 Xrotation Yrotation Zrotation
				JOINT RightArm
				{
					OFFSET -6.52904 -0.00002 0.00000
					CHANNELS 3 Xrotation Yrotation Zrotation
					JOINT RightForeArm
					{
						OFFSET -10.44840 -0.00004 0.00000
						CHANNELS 3 Xrotation Yrotation Zrotation
						JOINT RightHand
						{
							OFFSET -8.94727 -0.00003 0.00000
							CHANNELS 3 Xrotation Yrotation Zrotation
							JOINT RightHandThumb
							{
								OFFSET 0.00000 0.00000 0.00000
								CHANNELS 3 Xrotation Yrotation Zrotation
								End Site
								{
									OFFSET 0.00000 0.00000 3.93700
								}
							}
							JOINT R_Wrist_End
							{
								OFFSET -5.39369 -0.00002 0.00000
								CHANNELS 3 Xrotation Yrotation Zrotation
							}
						}
					}
				}
			}
		}
	}
}
MOTION
Frames: 16
Frame Time: 0.008333
 -73.7616 34.8507 0.8605 107.6420 75.5223 -115.0347 -12.0273 14.1853 13.6086 36.0650 0.0000 0.0000 37.9967 26.2736 2.6610 3.1340 -0.0000 0.0000 -16.0183 -4.7326 11.7326 8.9893 -0.0000 -0.0000 32.1419 -6.6429 29.1784 19.5196 0.0000 -0.0000 -9.5044 2.7371 -8.2349 9.6481 -4.3622 16.8035 -18.7305 15.5486 -1.0945 -21.4394 -41.2082 -11.4134 10.0988 18.3778 4.8829 -32.3652 -34.1332 -73.0298 -0.0001 -33.0946 -0.0000 -4.3444 -10.2122 -7.4707 -0.0000 -0.0000 0.0000 -0.0000 -0.0000 0.0000 16.8534 -16.6619 1.7359 -20.6731 20.3969 63.8530 -0.0000 9.2827 0.0000 -2.1995 -10.2626 -3.6703 -0.0000 0.0000 -0.0000 -0.0000 0.0000 -0.0000
 -73.5181 34.9082 0.8558 107.5794 75.8484 -114.5411 -12.7720 13.6563 13.2216 37.5054 0.0000 -0.0000 36.9332 26.1994 2.8045 2.3957 0.0000 -0.0000 -15.0437 -4.4638 11.5067 8.2070 0.0000 -0.0000 32.7853 -7.2475 28.9695 19.5196 0.0000 0.0000 -9.3427 2.8928 -8.2130 9.7237 -4.2948 16.2853 -18.4501 15.4868 -1.1055 -21.8288 -41.2129 -11.5667 10.2051 18.3436 4.8725 -32.0944 -33.8243 -73.5686 -0.0001 -33.0328 -0.0000 -4.2960 -9.9403 -7.9465 -0.0000 -0.0000 0.0000 -0.0000 -0.0000 0.0000 16.7919 -16.5314 1.7104 -20.7549 21.1641 64.4607 -0.0000 9.2373 0.0000 -2.3742 -9.9652 -3.7550 -0.0000 0.0000 -0.0000 -0.0000 0.0000 -0.0000
 -73.2756 34.9645 0.8383 107.2974 76.1590 -113.7278 -13.4590 13.2111 12.6641 38.6575 0.0000 -0.0000 36.0162 26.3208 2.4111 1.8912 -0.0000 0.0000 -14.1163 -4.3478 11.1521 7.5240 0.0000 0.0000 33.3567 -7.8343 28.6127 19.5196 0.0000 -0.0000 -9.2412 3.0564 -8.2088 9.8537 -4.2527 15.6759 -18.2577 15.4551 -1.1581 -22.0061 -41.2349 -11.5385 10.2464 18.4348 4.8257 -31.8015 -33.7105 -74.1321 -0.0001 -32.6678 -0.0000 -4.3342 -9.9129 -8.2043 -0.0000 0.0000 -0.0000 -0.0000 0.0000 -0.0000 16.8210 -16.3026 1.7652 -20.9001 21.9863 64.9528 -0.0000 9.3085 0.0000 -2.6919 -9.8523 -3.8006 0.0000 -0.0000 0.0000 0.0000 -0.0000 0.0000
 -73.0338 35.0178 0.8217 106.8105 76.4772 -112.6860 -14.2073 12.8308 12.0694 39.7374 -0.0000 0.0000 35.0969 26.6342 1.8235 1.6978 -0.0000 0.0000 -13.2204 -4.2220 10.7734 6.8832 -0.0000 0.0000 33.8518 -8.4557 28.1457 19.5196 0.0000 0.0000 -9.1600 3.2619 -8.1922 9.9967 -4.1887 15.0168 -18.0532 15.3876 -1.2499 -22.1767 -41.2650 -11.4790 10.3776 18.4523 4.7654 -31.5048 -33.4403 -74.6573 -0.0001 -32.2933 -0.0000 -4.3322 -9.7856 -8.5696 -0.0000 -0.0000 0.0000 -0.0000 -0.0000 0.0000 16.8371 -16.1466 1.7944 -21.3733 22.5427 65.6527 -0.0000 9.2091 0.0000 -2.5469 -9.6928 -3.7934 -0.0000 0.0000 0.0000 -0.0000 0.0000 0.0000
 -72.8020 35.0707 0.7918 106.2875 76.7635 -111.5054 -14.9659 12.5048 11.3442 40.6309 0.0000 0.0000 34.1820 26.8347 0.3808 2.3554 -0.0000 0.0000 -12.3904 -4.2214 10.2494 6.3163 -0.0000 0.0000 34.2787 -8.9919 27.7316 19.5196 -0.0000 0.0000 -9.0613 3.4331 -8.2139 10.1284 -4.1608 14.3175 -17.8477 15.3420 -1.4182 -22.2729 -41.2725 -11.2808 10.5305 18.5025 4.6522 -31.1890 -33.0645 -75.1998 -0.0001 -31.8440 -0.0000 -4.4170 -9.7338 -8.8455 0.0000 -0.0000 -0.0000 0.0000 -0.0000 -0.0000 16.7819 -15.9261 1.7894 -21.7113 23.2367 66.2835 -0.0000 9.2267 0.0000 -2.5385 -9.6017 -3.9126 -0.0000 0.0000 -0.0000 -0.0000 0.0000 -0.0000
 -72.5713 35.1206 0.7569 105.4220 77.0557 -109.9345 -15.7106 12.3430 10.5509 41.3225 -0.0000 0.0000 32.8138 27.2553 0.4674 2.2537 -0.0000 0.0000 -11.5913 -4.2251 9.6600 5.7740 0.0000 -0.0000 34.6657 -9.4203 27.4183 19.5196 -0.0000 0.0000 -8.9908 3.6428 -8.2500 10.2900 -4.1115 13.5774 -17.6152 15.3146 -1.5539 -22.4734 -41.2754 -11.1441 10.6661 18.5609 4.5675 -30.7986 -32.7293 -75.7427 -0.0001 -31.3051 -0.0000 -4.6013 -9.7207 -8.9814 -0.0000 -0.0000 -0.0000 -0.0000 -0.0000 -0.0000 16.7213 -15.7206 1.7820 -22.0895 23.9402 66.9305 -0.0000 9.3184 0.0000 -2.4028 -9.5774 -3.9913 -0.0000 -0.0000 -0.0000 -0.0000 -0.0000 -0.0000
 -72.3420 35.1677 0.7224 104.5757 77.3474 -108.3846 -16.4265 12.1701 9.7543 41.8408 -0.0000 0.0000 31.7768 27.4754 -0.2817 1.7382 -0.0000 0.0000 -10.8196 -4.2329 9.0636 5.2787 0.0000 -0.0000 35.0298 -9.8709 26.8874 19.5196 0.0000 -0.0000 -8.9056 3.8339 -8.2896 10.4554 -4.0792 12.8390 -17.4198 15.3009 -1.6807 -22.6122 -41.2722 -10.9990 10.8216 18.6337 4.4780 -30.4116 -32.2759 -76.3197 -0.0001 -30.7037 -0.0000 -4.5568 -9.4962 -9.2350 -0.0000 -0.0000 0.0000 -0.0000 -0.0000 0.0000 16.6149 -15.5161 1.7399 -22.4549 24.6999 67.6002 -0.0000 9.4071 0.0000 -2.2179 -9.4968 -4.0322 0.0000 -0.0000 0.0000 0.0000 -0.0000 0.0000
 -72.1380 35.2125 0.6922 103.7757 77.5135 -106.9024 -17.3743 11.9636 8.9760 42.3486 -0.0000 0.0000 30.3309 27.7856 -0.5511 1.6641 0.0000 0.0000 -10.3364 -4.2448 8.4654 5.0791 -0.0000 0.0000 35.2071 -10.3338 26.6867 19.5196 -0.0000 0.0000 -8.7408 3.9429 -8.3901 10.4398 -4.0767 12.2175 -17.0505 15.2698 -1.9105 -22.9093 -41.2170 -10.8083 11.0834 18.7000 4.3198 -30.0128 -31.8167 -76.8639 -0.0001 -30.0763 -0.0000 -4.6325 -9.3310 -9.2461 -0.0000 0.0000 0.0000 -0.0000 0.0000 0.0000 16.4476 -15.3282 1.5992 -22.7019 25.6113 68.2603 -0.0000 9.6302 0.0000 -2.1908 -9.4093 -4.1797 0.0000 -0.0000 0.0000 0.0000 -0.0000 0.0000
 -71.9239 35.2553 0.6551 102.6733 77.6978 -105.1090 -18.2318 11.8506 8.1677 42.5886 -0.0000 0.0000 28.8012 27.9904 -0.4587 1.7873 0.0000 -0.0000 -9.8551 -5.0599 7.8260 5.1236 0.0000 -0.0000 35.2518 -10.1297 25.6333 19.5196 0.0000 -0.0000 -8.6787 4.1461 -8.4085 10.5652 -4.0458 11.4751 -16.8474 15.2307 -2.0765 -23.0870 -41.2124 -10.6530 11.2068 18.7332 4.2153 -29.5756 -31.2986 -77.4304 -0.0001 -29.2535 -0.0000 -4.6134 -9.3120 -9.3085 0.0000 0.0000 -0.0000 0.0000 0.0000 -0.0000 16.3970 -15.2221 1.5825 -23.2223 26.3961 68.9690 -0.0000 9.8673 0.0000 -1.9505 -9.4221 -4.1848 0.0000 -0.0000 0.0000 0.0000 -0.0000 0.0000
 -71.7100 35.2979 0.6263 101.3990 77.8627 -103.2293 -19.0532 11.7017 7.4430 42.6138 -0.0000 0.0000 27.1734 28.1432 -0.4529 2.0341 0.0000 -0.0000 -9.3486 -4.8076 7.3037 4.7938 0.0000 0.0000 35.5476 -10.5818 25.6041 19.5196 0.0000 -0.0000 -8.6016 4.2757 -8.5179 10.6469 -4.0088 10.9935 -16.5745 15.2060 -2.4139 -23.1479 -41.1354 -10.2852 11.4531 18.8319 3.9724 -29.0787 -30.7998 -77.9373 -0.0001 -28.4190 -0.0000 -4.5865 -9.3583 -9.4042 -0.0000 0.0000 0.0000 -0.0000 0.0000 0.0000 16.2702 -15.0779 1.4317 -23.6389 27.3597 69.6349 -0.0000 10.0923 0.0000 -1.6822 -9.5438 -4.0687 -0.0000 -0.0000 0.0000 -0.0000 -0.0000 0.0000
 -71.4931 35.3380 0.6076 100.2871 78.0211 -101.6450 -19.9230 11.5458 6.8722 42.5321 -0.0000 0.0000 25.5238 28.1856 0.2884 1.8369 0.0000 0.0000 -8.8479 -4.4332 6.9382 4.6167 0.0000 -0.0000 35.6311 -11.0304 25.3249 19.5196 -0.0000 0.0000 -8.5340 4.4009 -8.5268 10.7578 -3.9975 10.4905 -16.3664 15.1952 -2.6322 -23.2382 -41.1026 -10.0366 11.6100 18.8898 3.7994 -28.5173 -30.2217 -78.4454 -0.0001 -27.5180 -0.0000 -4.5897 -9.4283 -9.3833 -0.0000 0.0000 -0.0000 -0.0000 0.0000 -0.0000 16.2088 -14.9259 1.3975 -24.1637 28.1577 70.2713 -0.0000 10.4003 0.0000 -1.6214 -9.4311 -4.0708 -0.0000 -0.0000 0.0000 -0.0000 -0.0000 0.0000
 -71.2803 35.3730 0.5863 98.9308 78.1464 -99.8203 -20.8104 11.4089 6.2933 42.3066 -0.0000 0.0000 23.9033 28.1879 0.8199 2.3625 -0.0000 0.0000 -8.4161 -4.1095 6.5603 4.4212 0.0000 0.0000 35.8672 -11.4737 25.2267 19.5196 0.0000 -0.0000 -8.4484 4.5037 -8.5928 10.8037 -3.9666 10.1095 -16.1271 15.1782 -2.9871 -23.2213 -41.0295 -9.6291 11.8487 18.9499 3.5103 -27.8864 -29.6657 -78.8773 -0.0001 -26.6706 -0.0000 -4.6116 -9.3466 -9.2688 -0.0000 0.0000 -0.0000 -0.0000 0.0000 -0.0000 16.1056 -14.7897 1.2869 -24.6479 29.0363 70.8838 -0.0000 10.7374 0.0000 -1.6632 -9.2987 -4.1390 -0.0000 0.0000 0.0000 -0.0000 0.0000 0.0000
 -71.0673 35.4017 0.5595 97.8462 78.2337 -98.2553 -21.6760 11.1808 5.6464 41.9365 -0.0000 0.0000 22.7747 28.3914 0.8551 2.1192 0.0000 -0.0000 -7.9959 -4.0584 6.1414 4.2994 0.0000 0.0000 35.8215 -11.7094 24.5708 19.5196 0.0000 -0.0000 -8.3823 4.5678 -8.5927 10.9028 -4.0260 9.5799 -16.0858 15.2900 -3.0270 -23.2960 -40.9576 -9.5680 11.9553 19.1328 3.2827 -27.1480 -29.2452 -79.2771 -0.0001 -25.7687 -0.0000 -4.5842 -9.3493 -9.1969 0.0000 -0.0000 0.0000 0.0000 -0.0000 0.0000 15.9972 -14.5942 1.2880 -25.1662 29.8553 71.4365 -0.0000 11.0893 0.0000 -1.4544 -9.1626 -4.1373 0.0000 -0.0000 0.0000 0.0000 -0.0000 0.0000
 -70.8586 35.4268 0.5338 96.9326 78.2991 -96.9082 -22.5629 10.8657 5.0315 41.4305 -0.0000 0.0000 21.9272 28.5214 0.4876 2.3574 -0.0000 -0.0000 -7.6263 -3.9999 5.7653 4.2426 0.0000 -0.0000 35.7662 -11.9875 23.9701 19.5196 -0.0000 -0.0000 -8.2829 4.6419 -8.5724 10.9171 -4.0604 9.0908 -15.9520 15.3095 -3.2118 -23.2922 -40.9213 -9.3373 12.1515 19.1759 3.0586 -26.4375 -28.7153 -79.6587 -0.0001 -24.8459 -0.0000 -4.6182 -9.3328 -9.1700 -0.0000 -0.0000 0.0000 -0.0000 -0.0000 0.0000 15.9056 -14.4348 1.3018 -25.6686 30.5476 71.9583 -0.0000 11.4895 0.0000 -1.0272 -9.1111 -4.1949 0.0000 0.0000 0.0000 0.0000 0.0000 0.0000
 -70.6459 35.4463 0.5115 96.1047 78.3409 -95.7118 -23.4294 10.5080 4.4753 40.7429 0.0000 -0.0000 21.2772 28.5064 0.5165 2.3797 0.0000 -0.0000 -7.2243 -3.5895 5.4611 4.0400 0.0000 -0.0000 35.8218 -12.4946 23.6381 19.5196 0.0000 -0.0000 -8.2258 4.7041 -8.5426 10.9719 -4.0992 8.6744 -15.9111 15.3450 -3.3188 -23.2592 -40.8656 -9.2289 12.3461 19.2214 2.8170 -25.7233 -28.1803 -80.0294 -0.0001 -23.9053 -0.0000 -4.4684 -9.4476 -9.2541 -0.0000 0.0000 -0.0000 -0.0000 0.0000 -0.0000 15.8324 -14.2876 1.3207 -26.2325 31.1917 72.4766 -0.0000 11.9097 0.0000 -1.0488 -8.9917 -4.2245 -0.0000 -0.0000 -0.0000 -0.0000 -0.0000 -0.0000
 -70.4343 35.4597 0.4828 95.3762 78.3565 -94.5967 -24.2938 10.2270 3.8702 39.9502 -0.0000 -0.0000 20.9185 28.7188 2.0919 0.6474 0.0000 0.0000 -6.8710 -3.5687 5.1263 3.9591 -0.0000 -0.0000 35.7398 -12.8452 23.1298 19.5196 0.0000 -0.0000 -8.1826 4.7478 -8.5338 11.0298 -4.1480 8.2945 -15.8359 15.3763 -3.3417 -23.3955 -40.7542 -9.3158 12.5492 19.2816 2.5597 -24.9842 -27.8749 -80.3871 -0.0001 -22.7987 -0.0000 -4.5400 -9.0619 -9.3113 0.0000 -0.0000 -0.0000 0.0000 -0.0000 -0.0000 15.7240 -14.1263 1.3108 -26.7622 31.8050 72.9568 -0.0000 12.3568 0.0000 -1.1624 -8.9207 -4.2811 -0.0000 0.0000 -0.0000 -0.0000 0.0000 -0.0000
